<svg xmlns="http://www.w3.org/2000/svg" aria-hidden="true" style="position:absolute;width:0;height:0;overflow:hidden"><defs><symbol id="icon-mail" viewBox="0 0 43 32"><path d="M38.704-.016H4.003A4.008 4.008 0 0 0-.001 3.988v24.023a4.009 4.009 0 0 0 4.004 4.004h34.701a4.008 4.008 0 0 0 4.004-4.004V3.988a4.008 4.008 0 0 0-4.004-4.004zm0 2.67c.181 0 .355.037.513.104L21.354 18.24 3.491 2.758c.151-.065.327-.104.512-.104h34.701zm0 26.692H4.003a1.335 1.335 0 0 1-1.335-1.335V5.576l17.809 15.436a1.33 1.33 0 0 0 1.753-.002l-.002.001L40.037 5.575V28.01c0 .737-.598 1.335-1.335 1.335z" /></symbol>
<symbol id="icon-phone" viewBox="0 0 20 32"><path d="M17.022 0H3.008A3.006 3.006 0 0 0 .005 3.003v26.025a3.006 3.006 0 0 0 3.003 3.003h14.014a3.006 3.006 0 0 0 3.003-3.003V3.003A3.006 3.006 0 0 0 17.022 0zM3.009 2.002h14.014a1 1 0 0 1 1.001 1.001v21.021H2.008V3.003a1 1 0 0 1 1.001-1.001zm14.013 28.027H3.008a1 1 0 0 1-1.001-1.001v-3.003h16.016v3.003a1 1 0 0 1-1.001 1.001z" /></symbol>
<symbol id="icon-satellite-dish" viewBox="0 0 32 32"><path fill="#212121" d="m30.78 22.103-8.445-8.507.937-4.617c.225.09.485.144.758.146h.033a2.16 2.16 0 1 0-2.03-1.421l-.005-.015-4.961.606L8.975.16A.53.53 0 0 0 8.598 0a.54.54 0 0 0-.374.155L6.712 1.659a.535.535 0 0 0 0 .754l.814.825C6.383 5.301 5.71 7.761 5.71 10.379c0 4.106 1.656 7.826 4.337 10.527l-.001-.001a.49.49 0 0 0 .146.097 2.986 2.986 0 0 0-.052.546v6.189H3.739a2.67 2.67 0 0 0-2.668 2.667v1.067c0 .295.239.534.534.534h24.539a.534.534 0 0 0 .533-.534v-1.067a2.67 2.67 0 0 0-2.667-2.667h-6.402v-2.743a14.784 14.784 0 0 0 10.168-1.503l-.077.039.818.823a.534.534 0 0 0 .376.16.54.54 0 0 0 .374-.155l1.513-1.504a.535.535 0 0 0 0-.754zM23.285 6.235a1.067 1.067 0 1 1 .752 1.824h-.004a1.067 1.067 0 0 1-.747-1.823h-.002zm-1.256 3.504-.599 2.947-1.176-1.183 1.774-1.764zm-.606-.902-1.92 1.909-1.486-1.494 3.406-.416zm2.586 19.969a1.6 1.6 0 0 1 1.6 1.6v.534H2.137v-.534a1.6 1.6 0 0 1 1.6-1.6h20.271zm-7.468-2.134v1.067h-5.335v-1.067h5.335zm-5.334-1.066v-4.054c0-1.294 1.197-2.347 2.667-2.347s2.668 1.053 2.668 2.347v4.054h-5.335zm6.401-1.697v-2.358c0-1.882-1.675-3.414-3.734-3.414h-.058a3.798 3.798 0 0 0-3.214 1.771l-.009.016a13.822 13.822 0 0 1-3.812-9.552c0-2.315.567-4.497 1.569-6.416l-.036.077L26.92 22.746c-1.823.947-3.98 1.502-6.267 1.502-1.079 0-2.129-.124-3.137-.357l.093.018zm11.292-.684L7.838 2.039l.754-.752 7.937 7.982c.004 0 .006.007.01.01l13.117 13.194-.757.752z" style="fill:var(--color2, #212121)"/><path fill="#2196f3" d="M13.879 20.271h-.007a1.6 1.6 0 0 0-.002 3.2h.007a1.6 1.6 0 0 0 .002-3.2zm.373 1.979a.534.534 0 1 1-.379-.913.533.533 0 0 1 .374.911h.005z" style="fill:var(--color3, #2196f3)"/></symbol>
<symbol id="icon-clock" viewBox="0 0 32 32"><path fill="#212121" d="M31.303 15.304C31.302 6.85 24.447-.002 15.992 0S.686 6.857.688 15.311C.69 22.1 5.111 27.856 11.231 29.859l.108.031a.667.667 0 0 0 .529-.065.642.642 0 0 0 .284-.357l3.866-12.253a1.914 1.914 0 1 0-.851-3.63l.011-.005-5.107-5.108a.638.638 0 0 0-.902.902l5.104 5.11a1.873 1.873 0 0 0 .533 2.307l.004.003-3.683 11.676C3.848 25.788.12 17.713 2.802 10.434S13.558-.573 20.838 2.109c7.279 2.681 11.007 10.756 8.325 18.036-1.345 3.582-4.004 6.408-7.375 7.94l-.088.036-.398-1.875a.639.639 0 0 0-1.05-.343l.001-.001-3.838 3.427a.639.639 0 0 0 .227 1.084l.005.001 4.9 1.564a.637.637 0 0 0 .818-.744l.001.004-.391-1.839c5.529-2.375 9.331-7.773 9.331-14.06v-.034.002zm-15.307-.637a.638.638 0 0 1 0 1.276.638.638 0 0 1 0-1.276zm2.1 14.867 2.185-1.949.603 2.841-2.788-.892z" style="fill:var(--color2, #212121)"/><path fill="#2196f3" d="M15.358 3.186v1.276a.638.638 0 0 0 1.276 0V3.186a.638.638 0 0 0-1.276 0zM3.877 14.667a.638.638 0 0 0 0 1.276h1.276a.638.638 0 0 0 0-1.276H3.877zm24.238 1.276a.638.638 0 0 0 0-1.276h-1.276a.638.638 0 0 0 0 1.276h1.276z" style="fill:var(--color3, #2196f3)"/></symbol>
<symbol id="icon-astronaut" viewBox="0 0 32 32"><path fill="#2196f3" d="M31.981 4.525a.535.535 0 0 0-.427-.362h-.003l-1.911-.278-.855-1.732c-.179-.365-.777-.365-.956 0l-.855 1.732-1.911.278a.534.534 0 0 0-.296.91l1.384 1.348-.326 1.903a.532.532 0 0 0 .774.562l1.709-.899 1.709.899a.534.534 0 0 0 .774-.565v.003l-.326-1.903 1.383-1.348a.535.535 0 0 0 .134-.55l.001.004zm-2.463 1.328a.532.532 0 0 0-.153.472l.191 1.114-1-.526a.525.525 0 0 0-.501.001l.003-.001-1 .526.191-1.114a.534.534 0 0 0-.152-.473l-.811-.79 1.119-.162a.532.532 0 0 0 .402-.292l.5-1.013.5 1.013a.532.532 0 0 0 .402.292l1.119.162-.809.79zm-3.379 14.674h-1.067v1.067h1.067v-1.067zm0 2.134h-1.067v1.066h1.067v-1.066zm1.067-1.067h-1.067v1.067h1.067v-1.067zm-2.133 0h-1.067v1.067h1.067v-1.067zm-2.668 4.801h-1.067v1.067h1.067v-1.067zm0 2.134h-1.067v1.067h1.067v-1.067zm1.067-1.067h-1.067v1.067h1.067v-1.067zm-2.134 0h-1.067v1.067h1.067v-1.067zm-5.334-3.201h-1.067v1.067h1.067v-1.067zm0 2.134h-1.067v1.067h1.067v-1.067zm1.066-1.067h-1.067v1.067h1.067v-1.067zm-2.133 0H13.87v1.067h1.067v-1.067zM5.868 6.123H4.801V7.19h1.067V6.123zm0 2.134H4.801v1.067h1.067V8.258zM6.935 7.19H5.868v1.067h1.067V7.19zm-2.134 0H3.734v1.067h1.067V7.19z" style="fill:var(--color3, #2196f3)"/><path fill="#212121" d="M24.72 14.163a1.781 1.781 0 0 0-1.179-.704l-.009-.001a1.769 1.769 0 0 0-1.344.355l.004-.003-1.253.96-1.898 1.417-1.358-.541c2.422-1.086 4.114-3.509 4.114-6.321 0-3.824-3.123-6.935-6.962-6.935S7.872 5.501 7.872 9.325c0 1.386.415 2.675 1.12 3.759l-2.769-.024c-.009 0-.016.005-.023.005a.511.511 0 0 0-.159.033l.004-.001c-.013.005-.026.007-.038.013-.006.003-.013.003-.019.006l-3.234 1.596-.001.001-1.893.91a.5.5 0 0 0-.065.036l.001-.001a1.782 1.782 0 0 0-.594 2.307l-.005-.01c.22.424.593.742 1.044.885l.013.003a1.772 1.772 0 0 0 1.388-.133l-.009.005 1.388-.738 2.264-1.17 1.357-.008-5.443 5.417-.001.001L.859 23.55a1.645 1.645 0 0 0-.491 1.174v.005c.002.92.748 1.664 1.668 1.664h.002a1.67 1.67 0 0 0 1.181-.486l1.315-1.309 1.741-1.3.901.897-3.102 3.089a1.645 1.645 0 0 0-.491 1.174v.004a1.662 1.662 0 0 0 1.667 1.664h.003c.428 0 .855-.162 1.181-.485l4.489-4.473c.007-.006.016-.009.022-.016l5.167-5.659 3.472.494a.474.474 0 0 0 .262-.032c.017-.006.032-.015.049-.023.019-.01.039-.015.058-.027l3.214-2.134c.012-.008.018-.021.029-.03.013-.01.029-.014.041-.026l1.271-1.191a1.775 1.775 0 0 0 .209-2.367l.003.005zM2.131 17.774a.706.706 0 0 1-.564.05l.005.001a.718.718 0 0 1-.215-1.259l.002-.001 1.314-.632.316.925.133.389-.992.527zm3.498-1.828-1.549.8-.255-.747-.184-.537 2.027-1.001-.04 1.484zm15.103-6.622c0 .919-.219 1.785-.599 2.56l-4.182-1.9a1.863 1.863 0 0 0-.782-1.384l-.006-.004 1.465-4.862c2.378.757 4.105 2.975 4.105 5.589zm-11.792 0c0-3.235 2.645-5.868 5.896-5.868.253 0 .5.022.745.053l-1.433 4.754c-.019 0-.037-.006-.057-.006h-.001a1.872 1.872 0 0 0-1.872 1.867 1.872 1.872 0 0 0 1.872 1.867h.001c.695 0 1.295-.383 1.619-.945l3.864 1.755a5.893 5.893 0 0 1-4.738 2.39c-3.251 0-5.896-2.632-5.896-5.868zm5.958.8c0 .441-.362.8-.807.8h-.001a.804.804 0 0 1-.804-.8c0-.441.361-.8.806-.8s.806.359.806.8zM2.465 25.152a.606.606 0 0 1-.855.001.591.591 0 0 1 0-.844l.962-.959.852.848-.959.955zm3.214 3.734a.606.606 0 0 1-.855.001.591.591 0 0 1 0-.844l.963-.959.852.848-.96.956zm3.483-3.47-.001.001-1.765 1.76-.852-.848 1.765-1.757a.527.527 0 0 0 .09-.136c.007-.014.02-.026.026-.04.016-.041.019-.085.026-.128.003-.025.014-.048.014-.073 0-.035-.013-.07-.02-.105-.006-.032-.006-.064-.019-.096a.536.536 0 0 0-.092-.138c-.01-.012-.014-.027-.025-.038h-.001l-.001-.002-1.607-1.6c-.017-.017-.039-.024-.058-.038a.491.491 0 0 0-.084-.056l-.003-.001a.527.527 0 0 0-.09-.031l-.003-.001a.502.502 0 0 0-.101-.02h-.025a.603.603 0 0 0-.075.005h.003c-.036.005-.069.009-.104.021s-.064.027-.094.045c-.02.011-.043.015-.061.029l-1.774 1.324-.901-.898 2.4-2.387 4.361 4.29-.928.919zm6.821-7.018c-.016-.002-.03.004-.046.003l-.027-.001a.562.562 0 0 0-.092.008h.003a.484.484 0 0 0-.187.07l.002-.001a.492.492 0 0 0-.083.061c-.013.011-.028.016-.04.029l-4.699 5.147-4.329-4.257 2.834-2.819a.535.535 0 0 0-.378-.911h-.002l-2.219.013.028-1.608 3.105.027a6.93 6.93 0 0 0 4.979 2.101h.003c.438 0 .864-.046 1.28-.123.04.032.08.064.129.085l2.411.96.152.759.178.886-3.004-.428zm4.042.178-.313-1.558 1.447-1.08.947 1.257-2.08 1.382zm3.754-2.831-.838.785-.931-1.236.831-.637a.735.735 0 0 1 .543-.143.718.718 0 0 1 .621.71.71.71 0 0 1-.226.521z" style="fill:var(--color2, #212121)"/><path fill="#212121" d="m13.605 18.548-2.144-2.134a.53.53 0 0 0-.752 0l-2.143 2.134a.533.533 0 0 0 0 .756l2.143 2.134a.533.533 0 0 0 .754 0l2.144-2.134a.532.532 0 0 0 0-.756zm-2.519 1.76-1.387-1.381 1.387-1.381 1.388 1.381-1.388 1.381zm6.082-15.236-.258 1.036c.071.018 1.738.452 1.738 2.149h1.067c0-2.017-1.666-2.966-2.547-3.185zm2.547 4.252h-1.067v1.067h1.067V9.324z" style="fill:var(--color2, #212121)"/></symbol>
<symbol id="icon-diagram" viewBox="0 0 32 32"><path fill="#2196f3" d="M14.929 14.968h1.066v4.799h-1.066v-4.799zm4.265 2.133h1.066v2.666h-1.066v-2.666zM10.663 18.7h1.066v1.066h-1.066V18.7zm-3.198-.533h1.066v1.599H7.465v-1.599z" style="fill:var(--color3, #2196f3)"/><path fill="#212121" d="M1.599 28.297h25.592a1.6 1.6 0 0 0 1.599-1.599v-2.133a1.6 1.6 0 0 0-1.599-1.599h-.533V9.669L29.686 6.8a1.61 1.61 0 1 0-.743-.753l-.004-.01L26.657 8.2V6.97a1.6 1.6 0 0 0-1.599-1.599H3.731A1.6 1.6 0 0 0 2.132 6.97v15.995h-.533A1.6 1.6 0 0 0 0 24.564v2.133a1.6 1.6 0 0 0 1.599 1.599zM30.391 4.838a.533.533 0 0 1 0 1.066.533.533 0 0 1 0-1.066zM3.199 6.97c0-.294.239-.533.533-.533h21.327c.294 0 .533.239.533.533v2.239l-1.066 1.013V8.036a.534.534 0 0 0-.534-.534H4.798a.534.534 0 0 0-.534.533v13.33c0 .294.239.533.534.533h19.194a.534.534 0 0 0 .534-.533v-9.677l1.066-1.011v12.286H3.198V6.969zm4.799 6.932h-.005a1.6 1.6 0 1 0 1.113 2.748l1.853.93a.533.533 0 0 0 .636-.123l3.94-4.433 3.873 2.902a.534.534 0 0 0 .686-.039l3.366-3.188v8.133H5.333V8.569H23.46v2.661l-3.772 3.572-3.905-2.928a.534.534 0 0 0-.718.071v.001l-3.994 4.494-1.493-.747c.011-.064.017-.129.02-.193a1.6 1.6 0 0 0-1.599-1.599zm.533 1.599a.533.533 0 0 1-1.066 0 .533.533 0 0 1 1.066 0zm3.199 8.531h5.331v.533a.533.533 0 0 1-.533.533h-4.266a.533.533 0 0 1-.533-.533v-.533zm-10.663.533c0-.294.238-.533.533-.533h9.064v.533a1.6 1.6 0 0 0 1.599 1.599h4.266a1.6 1.6 0 0 0 1.599-1.599v-.533h9.064c.294 0 .533.239.533.533v2.133a.533.533 0 0 1-.533.533H1.6a.533.533 0 0 1-.533-.533v-2.133z" style="fill:var(--color2, #212121)"/></symbol>
<symbol id="icon-instagramm" viewBox="0 0 32 32"><path fill="#fff" d="M32 16c0 4.418-1.791 8.418-4.686 11.314S20.419 32 16 32s-8.418-1.791-11.314-4.686C1.791 24.419 0 20.419 0 16S1.791 7.582 4.686 4.686 11.581 0 16 0c4.418 0 8.418 1.791 11.314 4.686S32 11.581 32 16z" style="fill:var(--color4, #fff)"/><path fill="#afb1b8" d="M23.258 13.004c-.034-.773-.159-1.304-.338-1.765a3.557 3.557 0 0 0-.841-1.29 3.589 3.589 0 0 0-1.287-.838c-.463-.179-.992-.304-1.764-.338-.779-.037-1.026-.046-3.001-.046s-2.222.009-2.998.043c-.773.034-1.304.159-1.764.338a3.557 3.557 0 0 0-1.29.841 3.589 3.589 0 0 0-.838 1.287c-.179.463-.304.992-.338 1.764-.037.779-.045 1.026-.045 3.001s.008 2.222.043 2.998c.034.773.159 1.304.338 1.765.185.489.472.926.841 1.29.364.369.804.656 1.287.838.463.179.992.304 1.765.338.776.034 1.023.043 2.998.043s2.222-.008 2.998-.043c.773-.034 1.304-.159 1.764-.338a3.72 3.72 0 0 0 2.128-2.128c.179-.463.304-.992.338-1.765.034-.776.043-1.023.043-2.998s-.003-2.222-.037-2.998zm-1.309 5.938c-.031.71-.151 1.094-.25 1.35a2.409 2.409 0 0 1-1.381 1.381c-.256.099-.642.219-1.35.25-.767.034-.997.043-2.938.043s-2.174-.008-2.938-.043c-.71-.031-1.094-.15-1.35-.25a2.228 2.228 0 0 1-.835-.543 2.264 2.264 0 0 1-.543-.835c-.099-.256-.219-.642-.25-1.35-.034-.767-.043-.997-.043-2.938s.008-2.174.043-2.938c.031-.71.151-1.094.25-1.35.117-.315.301-.602.546-.835.236-.242.52-.426.835-.543.256-.099.642-.219 1.35-.25.767-.034.997-.043 2.938-.043 1.944 0 2.174.008 2.938.043.71.031 1.094.151 1.35.25.315.116.602.301.835.543.241.236.426.52.543.835.099.256.219.642.25 1.35.034.767.043.997.043 2.938s-.009 2.168-.043 2.935z" style="fill:var(--color5, #afb1b8)"/><path fill="#afb1b8" d="M16.027 12.265a3.737 3.737 0 0 0 0 7.472c2.063 0 3.737-1.674 3.737-3.736s-1.674-3.736-3.737-3.736zm0 6.16a2.424 2.424 0 1 1 0-4.849 2.424 2.424 0 0 1 0 4.849zM20.784 12.117a.872.872 0 1 1-1.744 0 .872.872 0 0 1 1.744 0z" style="fill:var(--color5, #afb1b8)"/></symbol>
<symbol id="icon-twitter" viewBox="0 0 32 32"><path fill="#fff" d="M32 16c0 4.418-1.791 8.418-4.686 11.314S20.419 32 16 32s-8.418-1.791-11.314-4.686C1.791 24.419 0 20.419 0 16S1.791 7.582 4.686 4.686 11.581 0 16 0c4.418 0 8.418 1.791 11.314 4.686S32 11.581 32 16z" style="fill:var(--color4, #fff)"/><path fill="#afb1b8" d="M23.273 11.49a6.248 6.248 0 0 1-1.718.471 2.967 2.967 0 0 0 1.312-1.648 5.963 5.963 0 0 1-1.891.722 2.981 2.981 0 0 0-5.158 2.039c0 .236.02.464.069.68a8.439 8.439 0 0 1-6.146-3.119 2.985 2.985 0 0 0 .917 3.985 2.943 2.943 0 0 1-1.347-.367v.033a2.996 2.996 0 0 0 2.389 2.93 2.992 2.992 0 0 1-.782.098 2.64 2.64 0 0 1-.565-.051 3.01 3.01 0 0 0 2.786 2.077 5.991 5.991 0 0 1-3.697 1.272 5.59 5.59 0 0 1-.714-.041 8.393 8.393 0 0 0 4.575 1.338c5.487 0 8.487-4.545 8.487-8.485 0-.132-.005-.259-.011-.385a5.95 5.95 0 0 0 1.495-1.548z" style="fill:var(--color5, #afb1b8)"/></symbol>
<symbol id="icon-facebook" viewBox="0 0 32 32"><path fill="#fff" d="M32 16c0 4.418-1.791 8.418-4.686 11.314S20.419 32 16 32s-8.418-1.791-11.314-4.686C1.791 24.419 0 20.419 0 16S1.791 7.582 4.686 4.686 11.581 0 16 0c4.418 0 8.418 1.791 11.314 4.686S32 11.581 32 16z" style="fill:var(--color4, #fff)"/><path fill="#afb1b8" d="M18.422 11.142h1.328V8.829a17.317 17.317 0 0 0-1.935-.102c-1.915 0-3.226 1.204-3.226 3.418v2.037h-2.113v2.585h2.113v6.505h2.59v-6.505h2.027l.322-2.585h-2.35v-1.781c.001-.747.202-1.259 1.243-1.259z" style="fill:var(--color5, #afb1b8)"/></symbol>
<symbol id="icon-in" viewBox="0 0 32 32"><path fill="#fff" d="M32 16c0 4.418-1.791 8.418-4.686 11.314S20.419 32 16 32s-8.418-1.791-11.314-4.686C1.791 24.419 0 20.419 0 16S1.791 7.582 4.686 4.686 11.581 0 16 0c4.418 0 8.418 1.791 11.314 4.686S32 11.581 32 16z" style="fill:var(--color4, #fff)"/><path d="M23.269 23.273v-.001h.004v-5.335c0-2.61-.562-4.62-3.613-4.62-1.467 0-2.451.805-2.853 1.568h-.042v-1.324h-2.893v9.711h3.012v-4.809c0-1.266.24-2.49 1.808-2.49 1.545 0 1.568 1.445 1.568 2.572v4.728h3.009zM8.967 13.562h3.016v9.711H8.967v-9.711zM10.474 8.727c-.964 0-1.747.782-1.747 1.747s.782 1.763 1.747 1.763c.964 0 1.747-.799 1.747-1.763s-.783-1.747-1.747-1.747z" /></symbol>
<symbol id="icon-ya-and-co" viewBox="0 0 57 32"><path fill="#afb1b8" d="m20.27 3.732 3.738 3.539-6.939-.004v17.169h18.136v-6.565l3.734 3.535V3.732H20.27zm14.771 13.723L24.442 7.422h10.599v10.033zm-3.291 4.469H19.939V10.378h.835v10.765h10.977v.781zm-9.021 4.798-.436.899-.436-.899h-.366l.637 1.198v.698h.331v-.698l.635-1.198h-.364zm.548 1.896.154-.442h.735l.155.442h.344l-.717-1.896h-.296l-.716 1.896h.342zm.521-1.494.275.786h-.549l.275-.787zm1.737.741a.426.426 0 0 0-.072.238v.003c0 .16.056.29.168.389s.263.149.45.149a.784.784 0 0 0 .485-.153l.107.126h.367l-.278-.33c.109-.149.164-.341.164-.575h-.275a.768.768 0 0 1-.079.348l-.366-.432.129-.094a.724.724 0 0 0 .195-.195l.002-.003a.412.412 0 0 0 .06-.216v-.01a.388.388 0 0 0-.132-.293.477.477 0 0 0-.32-.123h-.02.001c-.153 0-.274.044-.364.13s-.136.203-.136.352c0 .061.014.123.043.189.03.065.082.144.155.237a1.13 1.13 0 0 0-.282.261zm.856.419a.478.478 0 0 1-.299.107h-.015a.31.31 0 0 1-.212-.083.286.286 0 0 1-.085-.203v-.011.001c0-.101.052-.192.156-.271l.041-.029.414.489zm-.34-.84c-.09-.11-.134-.202-.134-.275 0-.063.019-.116.055-.157a.184.184 0 0 1 .139-.063h.015c.052 0 .1.02.135.054a.168.168 0 0 1 .056.126v.007a.234.234 0 0 1-.08.177l-.041.032-.145.099zm3.086 1.03a.689.689 0 0 0 .224-.474h-.328c-.018.136-.059.232-.124.29s-.163.087-.292.087c-.141 0-.249-.054-.323-.162s-.11-.264-.11-.469v-.168c.002-.203.041-.355.117-.46a.386.386 0 0 1 .331-.157c.123 0 .217.03.28.091s.104.158.12.294h.328c-.021-.207-.095-.368-.222-.482s-.296-.171-.506-.171a.717.717 0 0 0-.681.421l-.002.005c-.06.133-.096.288-.096.451v.023-.001.177c.003.174.035.328.098.46s.151.234.266.306a.75.75 0 0 0 .4.107c.216 0 .389-.056.52-.169zm1.936-.265c.064-.141.097-.304.097-.49v-.125c0-.169-.036-.329-.102-.473l.003.007a.728.728 0 0 0-.274-.318l-.003-.002c-.119-.075-.256-.112-.411-.112s-.291.037-.411.113a.738.738 0 0 0-.277.324 1.139 1.139 0 0 0-.098.466v.025-.001.107c.001.181.034.341.099.48a.752.752 0 0 0 .279.322.764.764 0 0 0 .411.112.755.755 0 0 0 .412-.112.737.737 0 0 0 .276-.323zm-.352-1.072c.08.112.119.274.119.484v.099c0 .213-.039.376-.118.487a.386.386 0 0 1-.336.167h-.014a.393.393 0 0 1-.324-.17l-.001-.001c-.081-.114-.121-.275-.121-.483v-.109c.002-.204.043-.362.122-.473a.39.39 0 0 1 .321-.168h.014-.001a.39.39 0 0 1 .338.168z" style="fill:var(--color5, #afb1b8)"/></symbol>
<symbol id="icon-company-tagline-here" viewBox="0 0 57 32"><path fill="#afb1b8" d="M26.731 3.163h-.073a7.542 7.542 0 0 0-.336-.012h-.243c-.212 0-.428.005-.642.016l-.024-.001-.025.001h.001a15.04 15.04 0 0 0-5.7 1.47l.09-.039-.23.111V16.52l.54-.183a20.64 20.64 0 0 1 1.5-.445 17.817 17.817 0 0 1 4.306-.573h.012v1.552c-.193.001-.38.006-.568.016h-.045c-1.212.068-2.349.25-3.442.537l.12-.027c-1.503.382-2.82.911-4.045 1.587l.087-.044V3.793a15.482 15.482 0 0 1 4.043-1.665l.11-.024a15.546 15.546 0 0 1 3.91-.505h.231c.273.007.539.019.788.038.658.046 1.31.15 1.95.311v1.527a11.478 11.478 0 0 0-1.85-.283l-.039-.002-.039-.003c-.132-.011-.264-.022-.386-.022zm2.688 1.561c.339.026.69.038 1.044.038a16.84 16.84 0 0 0 4.231-.554l-.117.026a16.924 16.924 0 0 0 4.043-1.587l-.087.044v14.877a15.58 15.58 0 0 1-4.043 1.665l-.11.024a15.599 15.599 0 0 1-3.91.504h-.1c-1.02 0-2.01-.128-2.955-.368l.083.018V4.437c.229.053.466.102.706.142.394.067.81.115 1.215.145zm7.572.116-.54.181c-.496.167-.997.316-1.501.449-1.344.36-2.888.569-4.48.575h-.004c-.352 0-.676-.01-.989-.03l-.43-.028v12.15l.37.032c.342.03.696.045 1.052.045a14.371 14.371 0 0 0 3.631-.48l-.1.023a14.671 14.671 0 0 0 2.848-1.031l-.088.039.23-.111V4.84zM19.063 24.114a.794.794 0 0 0-.572-.243l-.03.001h.001-.012a.897.897 0 0 0-.341.067l.006-.002a.785.785 0 0 0-.442.444l-.002.005a.874.874 0 0 0-.062.335v2.024a.957.957 0 0 0 .079.415.808.808 0 0 0 .203.271.714.714 0 0 0 .277.144c.099.027.201.042.302.042a.854.854 0 0 0 .838-.851v-.226h-.53v.192c0 .06-.011.118-.032.171l.001-.003a.315.315 0 0 1-.077.114.367.367 0 0 1-.221.077.268.268 0 0 1-.248-.108l-.001-.001a.478.478 0 0 1-.071-.251v-.021.001-1.887a.643.643 0 0 1 .065-.302.27.27 0 0 1 .227-.124l.033.002h-.001.01c.092 0 .175.045.226.114l.001.001a.425.425 0 0 1 .088.26v.012-.001.175h.524v-.215a.958.958 0 0 0-.067-.352l.002.006a.838.838 0 0 0-.177-.285zm3.142-.022a.92.92 0 0 0-.917-.166.838.838 0 0 0-.483.443l-.002.005a.94.94 0 0 0-.077.392v1.941a.932.932 0 0 0 .077.397.77.77 0 0 0 .205.271.837.837 0 0 0 .279.171.914.914 0 0 0 .919-.172l-.001.001a.849.849 0 0 0 .2-.271.934.934 0 0 0 .077-.397v-1.958a.952.952 0 0 0-.08-.381l.002.006a.876.876 0 0 0-.199-.283zm-.247 2.616.001.03a.349.349 0 0 1-.106.251.388.388 0 0 1-.499 0h.001a.344.344 0 0 1-.106-.25c0-.011 0-.022.002-.032v.001-1.941l-.001-.03c0-.098.041-.187.106-.25a.388.388 0 0 1 .499 0h-.001a.344.344 0 0 1 .106.25l-.001.032v-.001 1.942zm4.375.867V23.9h-.508l-.668 1.945h-.009l-.674-1.945h-.503v3.674h.525v-2.235h.01l.514 1.58h.262l.518-1.58h.01v2.235h.525zm2.982-3.417a.727.727 0 0 0-.297-.201 1.153 1.153 0 0 0-.361-.057h-.8v3.675h.524V26.14h.269a.968.968 0 0 0 .473-.1.779.779 0 0 0 .286-.278l.002-.003a.893.893 0 0 0 .12-.32 2.56 2.56 0 0 0 .028-.385v-.035.002a2.107 2.107 0 0 0-.051-.525.789.789 0 0 0-.193-.338zm-.27 1.12a.45.45 0 0 1-.05.194l.001-.003a.3.3 0 0 1-.133.128l-.002.001a.525.525 0 0 1-.22.047l-.028-.001h.001-.239v-1.249h.27l.025-.001c.077 0 .149.017.214.048l-.003-.001a.299.299 0 0 1 .122.134l.001.002a.537.537 0 0 1 .046.205v.244c0 .085.005.174 0 .252h-.005zm2.751-1.378h-.429l-.81 3.675h.524l.154-.789h.714l.154.789h.523l-.829-3.675zm-.484 2.385.258-1.332h.01l.256 1.332h-.523zm3.867-.172h-.01l-.791-2.214h-.504v3.675h.523v-2.21h.011l.8 2.209h.493v-3.674h-.523v2.214zm3.199-2.213-.421 1.462h-.011l-.421-1.462h-.554l.719 2.122v1.553h.524v-1.553l.719-2.121h-.555zm-20.775 4.713h.252v.708h.171v-.708h.251v-.145h-.674v.146zm2.121-.146-.331.853h.182l.07-.194h.34l.073.194h.187l-.339-.853h-.182zm-.027.516.116-.316.116.316h-.232zm2.124.023h.197v.11a.326.326 0 0 1-.203.072h-.012a.216.216 0 0 1-.169-.082.352.352 0 0 1-.063-.203l.001-.02v.001c0-.19.082-.285.245-.285l.018-.001a.18.18 0 0 1 .174.136v.001l.169-.033c-.036-.166-.156-.251-.362-.251h-.011a.43.43 0 0 0-.287.11.417.417 0 0 0-.123.329v-.001.02c0 .115.041.22.11.301l-.001-.001a.412.412 0 0 0 .298.126l.027-.001h-.001.014a.51.51 0 0 0 .348-.137v-.336h-.37v.144zm2.141-.539h-.173v.853h.597v-.145h-.425v-.708zm1.811 0H25.6v.853h.173v-.853zm1.77.57-.349-.57h-.167v.853h.16v-.557l.343.557h.172v-.853h-.158v.57zm1.601-.093h.425v-.145h-.425v-.187h.457v-.146h-.63v.853h.648v-.145h-.475v-.231zm3.881-.141h-.336v-.336h-.171v.853h.171v-.373h.336v.373h.172v-.853h-.172v.337zm1.609.141h.427v-.145h-.427v-.187h.459v-.146h-.629v.853h.647v-.145h-.475v-.231zm2.184.001c.149-.023.224-.102.224-.237l.001-.024a.205.205 0 0 0-.085-.166h-.001a.48.48 0 0 0-.216-.051l-.035.001h.002-.362v.853h.172v-.357h.048c.034 0 .066.007.094.02l-.001-.001a.181.181 0 0 1 .061.062l.186.271h.205l-.104-.166a.598.598 0 0 0-.187-.203l-.002-.001zm-.173-.119h-.126v-.214h.135l.036-.001c.049 0 .097.008.141.023l-.003-.001c.023.021.037.05.037.083a.114.114 0 0 1-.045.09.464.464 0 0 1-.142.021l-.033-.001h.002zm1.819.118h.425v-.145h-.425v-.187h.459v-.146h-.632v.853h.648v-.145h-.475v-.231z" style="fill:var(--color5, #afb1b8)"/></symbol>
<symbol id="icon-company" viewBox="0 0 57 32"><path fill="#afb1b8" d="M19.419 26.189a.07.07 0 0 1 .046.018l.116.111a.959.959 0 0 1-.328.211 1.254 1.254 0 0 1-.434.076h-.032.002a1.213 1.213 0 0 1-.436-.071.958.958 0 0 1-.33-.2l.001.001a.908.908 0 0 1-.21-.302l-.002-.006a1.016 1.016 0 0 1-.075-.385v-.012.001-.02c0-.272.118-.516.305-.684l.001-.001a1.06 1.06 0 0 1 .349-.201c.143-.048.296-.072.45-.07h.028c.139 0 .273.024.398.067l-.009-.003c.115.044.221.104.313.179l-.098.118a.12.12 0 0 1-.024.021.064.064 0 0 1-.034.009h-.006a.102.102 0 0 1-.043-.012l-.052-.032-.073-.041a.834.834 0 0 0-.225-.07l-.005-.001a1 1 0 0 0-.161-.013h-.013.001-.011a.963.963 0 0 0-.319.055l.007-.002a.734.734 0 0 0-.254.15l.001-.001a.67.67 0 0 0-.164.237.774.774 0 0 0-.059.302v.011-.001.013c0 .11.022.215.061.311l-.002-.005a.697.697 0 0 0 .162.236.662.662 0 0 0 .242.147.886.886 0 0 0 .299.051c.059.001.119-.003.178-.01a.696.696 0 0 0 .385-.164l-.001.001a.088.088 0 0 1 .055-.02zm3.36-.559v.012a.958.958 0 0 1-.081.387l.002-.006a.864.864 0 0 1-.218.304l-.001.001a1.01 1.01 0 0 1-.337.198l-.007.002a1.409 1.409 0 0 1-.894-.003l.01.003a1.016 1.016 0 0 1-.342-.202l.001.001a.893.893 0 0 1-.219-.303l-.002-.006a1.024 1.024 0 0 1 .003-.793l-.003.007a.925.925 0 0 1 .221-.309c.097-.085.213-.15.341-.194a1.383 1.383 0 0 1 .894.003l-.01-.003c.129.045.246.114.343.201a.903.903 0 0 1 .298.701zm-.305 0v-.017a.812.812 0 0 0-.058-.305l.002.006a.655.655 0 0 0-.397-.384l-.005-.001a1.027 1.027 0 0 0-.65.002l.007-.002a.682.682 0 0 0-.246.15.626.626 0 0 0-.156.232l-.001.004a.91.91 0 0 0 .003.638l-.002-.006a.652.652 0 0 0 .399.383l.005.001c.207.068.435.068.643 0a.685.685 0 0 0 .245-.148.662.662 0 0 0 .156-.236.817.817 0 0 0 .055-.316zm2.597.331.031.07c.011-.025.021-.048.033-.07a.937.937 0 0 1 .039-.072l-.002.003.743-1.174c.015-.02.028-.033.043-.037s.033-.007.051-.007h.23v1.91h-.26v-1.463l-.001-.033.001-.035v.002l-.748 1.191a.111.111 0 0 1-.043.043h-.001a.13.13 0 0 1-.063.016H25.079a.134.134 0 0 1-.063-.016h.001a.111.111 0 0 1-.043-.043v-.001l-.77-1.198v1.532h-.251v-1.905h.229c.018 0 .036.002.052.007h-.001a.087.087 0 0 1 .041.037l.759 1.175c.014.02.026.042.037.066l.001.003zm2.797-.094v.715h-.29v-1.906h.649c.123-.002.244.012.362.042a.724.724 0 0 1 .256.119.499.499 0 0 1 .144.184l.001.003a.577.577 0 0 1 .05.244v.012a.528.528 0 0 1-.21.422l-.001.001a.757.757 0 0 1-.258.126 1.208 1.208 0 0 1-.327.044h-.024l-.351-.005zm0-.205h.352a.82.82 0 0 0 .226-.029.488.488 0 0 0 .164-.083l-.001.001a.365.365 0 0 0 .133-.283v-.005l.001-.021a.33.33 0 0 0-.03-.137l.001.002a.371.371 0 0 0-.101-.13l-.001-.001a.621.621 0 0 0-.345-.104l-.048.002h.002-.352v.786zm3.909.922h-.233a.111.111 0 0 1-.06-.018.116.116 0 0 1-.038-.044v-.001l-.197-.461h-.994l-.205.461a.11.11 0 0 1-.099.062h-.233l.873-1.91h.302l.884 1.91zm-1.44-.709h.82l-.346-.777a1.33 1.33 0 0 1-.066-.179l-.034.1a.652.652 0 0 1-.032.081l-.343.776zm2.697-1.191a.12.12 0 0 1 .043.034l1.273 1.44v-1.482h.26v1.91h-.148a.135.135 0 0 1-.057-.012h.001a.165.165 0 0 1-.047-.035l-1.271-1.438.001.033-.001.034v-.002 1.419h-.26v-1.91h.154a.15.15 0 0 1 .052.009zm3.72 1.141v.758h-.291v-.757l-.804-1.15h.266c.021 0 .04.006.056.016a.175.175 0 0 1 .039.043l.503.742a1.118 1.118 0 0 1 .089.17l.037-.082a.63.63 0 0 1 .05-.087l.496-.747a.202.202 0 0 1 .037-.04.095.095 0 0 1 .057-.019h.269l-.805 1.155zm-11.827-4.354c.126.014.254.025.384.035 1.962-.763 3.622-2.011 4.773-3.589s1.739-3.415 1.695-5.283l-2.162-1.879c.44 1.988.234 4.043-.594 5.936s-2.246 3.547-4.095 4.779z" style="fill:var(--color5, #afb1b8)"/><path fill="#afb1b8" d="m24.155 21.383.058.011c1.976-1.228 3.482-2.943 4.324-4.922s.981-4.133.4-6.182l-3.08-2.676c1.246 2.2 1.747 4.662 1.446 7.1-.301 2.438-1.392 4.751-3.147 6.67zm10.446-6.543c-.523 2.052-1.794 3.902-3.624 5.277-.5.38-1.064.737-1.658 1.043l-.065.03c1.49-.38 2.86-1.053 4.003-1.966s2.031-2.042 2.592-3.3L34.6 14.84z" style="fill:var(--color5, #afb1b8)"/><path fill="#afb1b8" d="m34.111 14.538-1.778-1.545c-.034 1.762-.611 3.484-1.67 4.986s-2.563 2.732-4.353 3.559h.009c.399 0 .797-.021 1.194-.062 1.673-.594 3.152-1.538 4.303-2.749s1.94-2.65 2.295-4.19zm-9.699-8.054L22.29 4.638c-1.897.637-3.528 1.757-4.681 3.212s-1.772 3.18-1.778 4.947c.007 1.952.763 3.847 2.15 5.384 1.385 1.536 3.322 2.628 5.502 3.101 1.946-2.06 3.086-4.605 3.253-7.267s-.647-5.299-2.324-7.532zm14.602 7.77c-.007-2.316-1.07-4.536-2.955-6.174s-4.44-2.561-7.106-2.568h-.021a11.28 11.28 0 0 0-3.66.606l.079-.024 12.991 11.288c.423-.92.671-1.995.672-3.129z" style="fill:var(--color5, #afb1b8)"/></symbol>
<symbol id="icon-foster-peters" viewBox="0 0 57 32"><path fill="#2196f3" d="M12.88 11.254h-.002c-1.279 0-2.316.921-2.316 2.058v.002c0 1.137 1.037 2.058 2.316 2.058h.002c1.279 0 2.316-.922 2.316-2.058v-.001c0-1.137-1.037-2.059-2.316-2.059zm17.095-.657c-.004-1.579-.711-3.093-1.967-4.209s-2.959-1.745-4.735-1.749c-1.777.003-3.481.632-4.738 1.748s-1.964 2.63-1.968 4.21v8.707s13.407-1.327 13.408-8.705v-.002zM5.868 22.161c.003 1.099.496 2.151 1.37 2.928s2.058 1.215 3.294 1.218c1.236-.003 2.42-.441 3.294-1.218s1.367-1.829 1.37-2.927v-6.059s-9.328.924-9.328 6.057zm4.664 1.085c-.242 0-.477-.063-.678-.183a1.136 1.136 0 0 1-.447-.48l-.003-.007a.951.951 0 0 1-.068-.634l-.001.007c.047-.211.163-.404.334-.556s.388-.256.625-.297a1.363 1.363 0 0 1 .715.064L11 21.157c.223.082.414.221.548.4s.206.388.206.603a.963.963 0 0 1-.092.417 1.095 1.095 0 0 1-.263.352l-.001.001a1.323 1.323 0 0 1-.864.319h-.001v-.004zm9.427-.598h-.9v.93h-.469v-2.276h1.482v.38h-1.013v.588h.9v.378zm2.253-.156c0 .224-.039.42-.118.589a.893.893 0 0 1-.83.529h-.018.001a.943.943 0 0 1-.505-.136.917.917 0 0 1-.341-.382l-.002-.006a1.319 1.319 0 0 1-.123-.561v-.021.001-.112c0-.224.04-.421.12-.591a.895.895 0 0 1 .342-.392c.148-.092.316-.138.506-.138s.357.046.505.138a.888.888 0 0 1 .342.392c.081.17.122.366.122.589v.101zm-.474-.103c0-.238-.043-.42-.128-.544a.417.417 0 0 0-.348-.186h-.019.001-.018a.419.419 0 0 0-.346.183l-.001.001c-.085.122-.129.301-.13.538v.111c0 .232.043.412.128.54s.208.192.369.192h.019a.413.413 0 0 0 .343-.183l.001-.001c.084-.124.127-.304.128-.541v-.111zm1.995.592v-.013a.24.24 0 0 0-.093-.189h-.001a1.185 1.185 0 0 0-.338-.15c-.15-.047-.278-.1-.399-.163l.014.006c-.259-.14-.388-.328-.388-.564 0-.123.034-.233.103-.328a.691.691 0 0 1 .299-.227 1.13 1.13 0 0 1 .437-.081c.163 0 .307.029.435.089a.677.677 0 0 1 .295.249.646.646 0 0 1 .107.365h-.469c0-.104-.032-.185-.098-.242a.4.4 0 0 0-.276-.087.426.426 0 0 0-.267.074.228.228 0 0 0-.096.185v.006c0 .074.037.136.111.186.075.05.185.097.33.14.267.08.461.18.583.299s.183.267.183.444c0 .197-.075.352-.224.464s-.349.168-.601.168c-.175 0-.334-.032-.478-.096a.77.77 0 0 1-.328-.261l-.002-.002a.672.672 0 0 1-.112-.373v-.015.001h.47c0 .251.15.377.45.377a.442.442 0 0 0 .261-.067.224.224 0 0 0 .094-.182v-.009zm2.502-1.299h-.697v1.896h-.469v-1.896h-.686v-.38h1.853v.38zm1.637.91h-.9v.61h1.056v.377h-1.525v-2.276h1.522v.38h-1.053v.542h.9v.367zm1.274.153h-.373v.833h-.469v-2.276h.845c.269 0 .476.06.622.18s.219.289.219.508a.705.705 0 0 1-.101.389.69.69 0 0 1-.3.245l-.005.002.492.93v.021h-.503l-.427-.832zm-.373-.38h.379a.387.387 0 0 0 .273-.089.323.323 0 0 0 .097-.231v-.018.001c0-.108-.03-.192-.092-.253s-.154-.092-.28-.092h-.377v.683zm2.841.411v.802h-.469v-2.276h.888c.171 0 .321.031.45.094.13.062.23.151.3.267a.746.746 0 0 1 .105.392.657.657 0 0 1-.229.528c-.153.128-.363.193-.633.193h-.411zm0-.379h.419c.124 0 .219-.029.283-.087a.317.317 0 0 0 .099-.25v-.017a.372.372 0 0 0-.099-.254.37.37 0 0 0-.272-.106h-.43v.715zm2.966.195h-.9v.61h1.056v.377h-1.525v-2.276h1.522v.38H33.68v.542h.9v.367zm2.175-.91h-.697v1.896h-.469v-1.896h-.688v-.38h1.854v.38zm1.638.91h-.899v.61h1.056v.377h-1.526v-2.276h1.522v.38h-1.053v.542h.9v.367zm1.274.153h-.373v.833h-.469v-2.276h.846c.269 0 .476.06.622.18s.219.289.219.508a.705.705 0 0 1-.101.389.687.687 0 0 1-.301.245l-.005.002.492.93v.021h-.503l-.427-.832zm-.374-.38h.378c.117 0 .209-.029.273-.089a.325.325 0 0 0 .098-.232v-.018.001a.338.338 0 0 0-.092-.253c-.06-.061-.154-.092-.279-.092h-.377v.683zm2.755.616v-.013a.237.237 0 0 0-.094-.189h-.001a1.185 1.185 0 0 0-.338-.15c-.15-.047-.278-.1-.399-.163l.014.006c-.259-.14-.388-.328-.388-.564 0-.123.035-.233.103-.328a.691.691 0 0 1 .299-.227 1.13 1.13 0 0 1 .437-.081c.163 0 .307.029.435.089a.677.677 0 0 1 .295.249.646.646 0 0 1 .107.365h-.469c0-.104-.032-.185-.098-.242a.4.4 0 0 0-.276-.087.426.426 0 0 0-.267.074.229.229 0 0 0-.096.186v.005c0 .074.037.136.111.186s.185.097.33.14c.267.08.461.18.583.299s.183.267.183.444c0 .197-.075.352-.224.464s-.349.168-.601.168c-.175 0-.334-.032-.478-.096a.77.77 0 0 1-.328-.261l-.002-.002a.672.672 0 0 1-.112-.373v-.015.001h.47c0 .251.15.377.45.377a.442.442 0 0 0 .261-.067.224.224 0 0 0 .094-.182v-.009z" style="fill:var(--color3, #2196f3)"/></symbol>
<symbol id="icon-brand" viewBox="0 0 57 32"><path fill="#afb1b8" d="M14.273 23.86a.768.768 0 0 1 .197.56.756.756 0 0 1-.073.326l.002-.005a.83.83 0 0 1-.232.296l-.002.001a1.39 1.39 0 0 1-.885.24h.004-1.549v-3.302h1.517a1.377 1.377 0 0 1 .846.222l-.005-.003a.782.782 0 0 1 .227.277.71.71 0 0 1 .068.341.722.722 0 0 1-.176.505.842.842 0 0 1-.462.258.893.893 0 0 1 .523.283zm-1.817-.498h.649a.655.655 0 0 0 .412-.11.386.386 0 0 0 .109-.144l.001-.003a.358.358 0 0 0 .03-.145l-.001-.033v.001l.001-.028a.376.376 0 0 0-.031-.15l.001.002a.399.399 0 0 0-.108-.147h-.001a.665.665 0 0 0-.373-.113l-.054.002h.002-.639v.867zm1.124 1.266a.407.407 0 0 0 .118-.149l.001-.003a.37.37 0 0 0 .034-.158l-.001-.027v.001l.001-.024a.38.38 0 0 0-.037-.165l.001.002a.41.41 0 0 0-.121-.151l-.001-.001a.705.705 0 0 0-.397-.121l-.045.001h.002-.68v.908h.689a.727.727 0 0 0 .435-.115zm3.793.652-.843-1.291h-.317v1.291h-.726v-3.302h1.375a1.433 1.433 0 0 1 .96.284l-.004-.003a1.018 1.018 0 0 1 .329.735.99.99 0 0 1-.228.633l.001-.002a1.152 1.152 0 0 1-.649.335l-.006.001.899 1.32h-.789zm-1.16-1.741h.594c.412 0 .619-.166.619-.5l.001-.027a.464.464 0 0 0-.035-.176l.001.003a.494.494 0 0 0-.118-.171.68.68 0 0 0-.47-.133h.003-.601l.007 1.005zm5.129 1.076h-1.447l-.256.665h-.761l1.328-3.266h.824l1.323 3.266h-.761l-.25-.665zm-.194-.5-.529-1.394-.529 1.394h1.057zm5.161 1.165h-.72l-1.616-2.246v2.246h-.719v-3.303h.719l1.616 2.259v-2.259h.72v3.303zm4.113-.791a1.501 1.501 0 0 1-.652.582c-.28.132-.608.209-.955.209l-.062-.001h.003-1.282v-3.302h1.283l.06-.001c.345 0 .673.075.968.209l-.015-.006c.276.128.503.329.652.576a1.78 1.78 0 0 1 0 1.733zm-.825-.079c.196-.205.317-.482.318-.788 0-.289-.113-.569-.318-.788a1.317 1.317 0 0 0-.906-.281h.004-.5v2.138h.5a1.328 1.328 0 0 0 .906-.282l-.003.002zM21.793 3.607s9.302 3.215 9.105 7.868v7.87s-9.295-3.216-9.102-7.87l-.003-7.868zm17.391 13.896a13.498 13.498 0 0 1 5.91-1.994v-2.464c-2.444.863-4.518 2.427-5.91 4.458z" style="fill:var(--color5, #afb1b8)"/><path fill="#afb1b8" d="M38.129 18.246c1.438-2.651 3.93-4.697 6.965-5.717V5.43s-13.247 4.58-12.967 11.206v11.205s.59-.205 1.519-.589c0-.358 0-.72.043-1.083.274-3.076 1.871-5.926 4.44-7.925z" style="fill:var(--color5, #afb1b8)"/><path fill="#afb1b8" d="M36.869 22.408c.069-.777.225-1.546.463-2.294-1.599 1.726-2.568 3.867-2.769 6.123-.02.213-.03.426-.036.645a37.035 37.035 0 0 0 2.762-1.334l-.214.105a10.63 10.63 0 0 1-.206-3.245zm.527.04a10.184 10.184 0 0 0 .175 3.004l-.012-.066c3.619-1.983 7.686-5.047 7.529-8.75v-.323c-2.586.265-5.005 1.3-6.886 2.946a10.02 10.02 0 0 0-.804 3.149l-.003.04z" style="fill:var(--color5, #afb1b8)"/></symbol>
<symbol id="icon-company-tag-line" viewBox="0 0 57 32"><path fill="#afb1b8" d="M28.498 14.617a1.563 1.563 0 0 1-.322-1.066v.005-1.538c0-.471.107-.829.321-1.075.213-.245.581-.367 1.102-.366.489 0 .837.105 1.042.313.224.266.333.592.308.92v.362h-.875v-.366a1.799 1.799 0 0 0-.026-.358.345.345 0 0 0-.125-.212l-.001-.001a.499.499 0 0 0-.279-.084l-.039.001h.002l-.038-.001a.53.53 0 0 0-.297.09l.002-.001a.415.415 0 0 0-.145.232v.003a1.74 1.74 0 0 0-.035.351v.031-.002 1.866c-.014.18.025.36.112.524.045.056.104.1.172.126l.003.001a.48.48 0 0 0 .228.029h-.002a.47.47 0 0 0 .311-.086l-.002.001a.37.37 0 0 0 .13-.224v-.002c.02-.124.03-.249.027-.374v-.379h.875v.346a1.402 1.402 0 0 1-.305.97l.002-.003c-.201.228-.544.342-1.048.342s-.884-.122-1.1-.376zm3.644.016c-.221-.24-.332-.588-.332-1.05v-1.618c0-.457.11-.803.332-1.037s.59-.352 1.109-.35c.515 0 .882.117 1.104.35.221.235.333.58.333 1.037v1.617c0 .457-.112.808-.337 1.049s-.59.361-1.1.361-.886-.122-1.109-.36zm1.516-.388a.902.902 0 0 0 .105-.478v-1.981a.872.872 0 0 0-.105-.474l.002.005a.425.425 0 0 0-.176-.128l-.003-.001a.473.473 0 0 0-.233-.027h.002a.49.49 0 0 0-.235.028l.003-.001a.416.416 0 0 0-.179.128l-.001.001a.855.855 0 0 0-.105.469v1.99a.888.888 0 0 0 .105.479.605.605 0 0 0 .639.116l-.004.001a.563.563 0 0 0 .185-.118v-.01zm2.083-3.62h.942l.708 2.984.725-2.984h.916l.093 4.308h-.678l-.073-2.994-.699 2.994h-.544l-.724-3.005-.067 3.005h-.685l.085-4.308zm4.441 0h1.468c.845 0 1.268.408 1.268 1.223 0 .781-.445 1.171-1.336 1.17h-.5v1.914h-.906l.005-4.308zm1.254 1.841a.707.707 0 0 0 .498-.136.699.699 0 0 0 .131-.486 1.325 1.325 0 0 0-.046-.4l.002.009a.317.317 0 0 0-.067-.119.386.386 0 0 0-.112-.085l-.002-.001a.913.913 0 0 0-.357-.071l-.05.001h.002-.352v1.288h.352zm2.789-1.841h.973l.999 4.308h-.845l-.197-.993h-.868l-.203.993h-.857l.998-4.308zm.832 2.816-.339-1.808-.339 1.808h.677zm1.946-2.816h.635l1.214 2.457v-2.457h.752v4.308h-.603l-1.221-2.566v2.566h-.777l.002-4.308zm4.361 2.665-1.009-2.659h.85l.616 1.709.578-1.709h.832l-.997 2.66v1.642h-.869V13.29zm-21.467 3.527v.225h-.739v1.751h-.31v-1.751h-.743v-.225h1.792zm2.317 1.976h-.246a.105.105 0 0 1-.061-.019.1.1 0 0 1-.039-.045v-.001l-.214-.469h-1.026l-.213.469a.126.126 0 0 1-.033.053.108.108 0 0 1-.062.019h-.245l.906-1.976h.315l.917 1.968zm-1.5-.734h.855l-.363-.804a1.278 1.278 0 0 1-.064-.176l-.003-.01-.034.105-.033.083-.358.803zm3.062.54a1.018 1.018 0 0 0 .316-.023 1.018 1.018 0 0 0 .252-.085v-.444h-.365a.076.076 0 0 1-.046-.016c-.006-.004-.01-.01-.014-.016a.034.034 0 0 1-.004-.018v-.153h.703v.757c-.11.068-.237.123-.372.158l-.01.002c-.075.019-.15.033-.227.041a2.598 2.598 0 0 1-.265.012h-.012c-.159 0-.312-.027-.455-.077l.01.003a1.123 1.123 0 0 1-.364-.208l.002.001a.952.952 0 0 1-.231-.307l-.002-.006a.965.965 0 0 1-.083-.397v-.013.001-.012c0-.145.03-.283.084-.407l-.003.007a.907.907 0 0 1 .234-.313c.103-.089.227-.158.363-.205.155-.051.32-.076.485-.074.084 0 .169.005.252.017.074.011.146.027.215.05.064.02.124.047.181.078.055.031.108.065.158.103l-.087.122a.073.073 0 0 1-.029.026.093.093 0 0 1-.042.011.111.111 0 0 1-.057-.016h.001a.892.892 0 0 1-.094-.05l.005.003a.814.814 0 0 0-.115-.052l-.006-.002a1.027 1.027 0 0 0-.16-.043l-.007-.001a1.34 1.34 0 0 0-.218-.017h-.013.001-.011c-.121 0-.238.02-.346.057l.008-.002a.774.774 0 0 0-.267.156.672.672 0 0 0-.166.241l-.002.005a.917.917 0 0 0 .002.665l-.002-.006a.76.76 0 0 0 .445.405c.115.034.237.047.359.039zm2.889-.031h.989v.225h-1.291v-1.976h.309l-.007 1.751zm2.018.225h-.309v-1.976h.309v1.976zm1.153-1.966a.14.14 0 0 1 .047.036l1.324 1.489-.001-.035.001-.037v.002-1.472h.27v1.984h-.166a.14.14 0 0 1-.058-.012h.001a.162.162 0 0 1-.048-.037l-1.323-1.488v1.536h-.259v-1.976h.161c.018 0 .035.003.051.009zm3.923-.01v.217h-1.098v.652h.89v.21h-.89v.674h1.098v.218h-1.417v-1.971h1.417zM11.288 4.615l13.759 3.373v11.819l-13.759-3.371V4.615zm-.883-1.008V17.01l15.522 3.806V7.415L10.405 3.607z" style="fill:var(--color5, #afb1b8)"/><path fill="#afb1b8" d="m18.725 27.037-15.524-3.81V9.826l15.524 3.808v13.402z" style="fill:var(--color5, #afb1b8)"/><path fill="#afb1b8" d="m10.663 4.463 13.58 3.331-5.775 4.987L4.887 9.449l5.777-4.986zm-.258-.856L3.2 9.827l15.524 3.809 7.203-6.221-15.522-3.808zm9.193 22.677 6.33-5.467-6.331-1.552v7.02z" style="fill:var(--color5, #afb1b8)"/></symbol></defs></svg>